<svg data-v-0dd9719b="" version="1.0" xmlns="http://www.w3.org/2000/svg" xmlns:xlink="http://www.w3.org/1999/xlink" width="100%" height="100%" viewBox="0 0 340.000000 250.000000" preserveAspectRatio="xMidYMid meet" color-interpolation-filters="sRGB" style="margin: auto;"> <rect data-v-0dd9719b="" x="0" y="0" width="100%" height="100%" fill="#fff" fill-opacity="1" class="background"></rect> <rect data-v-0dd9719b="" x="0" y="0" width="100%" height="100%" fill="url(#watermark)" fill-opacity="1" class="watermarklayer"></rect> <g data-v-0dd9719b="" fill="#333" class="icon-text-wrapper icon-svg-group iconsvg" transform="translate(48.19499969482422,90.35796737670898)"><g class="iconsvg-imagesvg" transform="translate(0,0)"><g><rect fill="#333" fill-opacity="0" stroke-width="2" x="0" y="0" width="60" height="69.28406466512702" class="image-rect"></rect> <svg x="0" y="0" width="60" height="69.28406466512702" filtersec="colorsb5859852145" class="image-svg-svg primary" style="overflow: visible;"><svg xmlns="http://www.w3.org/2000/svg" viewBox="0 0 86.5999984741211 100"><g fill-rule="evenodd"><path d="M28.87 83.33l28.86-16.66V100zm0-66.66V50l28.86-16.67-28.86-16.66L0 33.33 28.87 50zm28.86 50V33.33L28.87 50 0 66.67l28.87 16.66z" fill="#21335c"></path><path d="M28.87 50L0 33.33l28.87-16.66 28.86 16.66L28.87 50zm28.86-16.67L86.6 16.67 57.73 0 28.87 16.67z" fill="#da2638" opacity=".8"></path><path d="M28.87 83.33L0 66.67 28.87 50l28.86-16.67v33.34zm28.86-50v33.34L86.6 50z" fill="#0089c8" opacity=".8"></path></g></svg></svg> <!----></g></g> <g transform="translate(67,20.012032508850098)"><g data-gra="path-name" fill-rule="" class="tp-name iconsvg-namesvg"><g transform="scale(1)"><g><path d="M2.55-29.26L2.55 0 14.63 0C23.53 0 27.42-6.35 27.42-14.63 27.42-22.95 23.53-29.26 14.63-29.26ZM12.79-23.79C17.77-23.79 21.49-21.86 21.49-14.63 21.49-7.36 17.81-5.52 12.83-5.52L8.24-5.52 8.24-23.79ZM45.61-29.26L38.46-29.26 27.97 0 34.07 0 35.91-5.43 48.62-5.43 50.58 0 57.1 0ZM37.37-9.82L41.84-23.2 42.26-23.2 47.07-9.82ZM54.68-29.26L54.68-24.45 63.5-24.45 63.5 0 69.14 0 69.14-24.45 77.92-24.45 77.92-29.26ZM92.42-29.26L85.28-29.26 74.78 0 80.89 0 82.73-5.43 95.43-5.43 97.4 0 103.92 0ZM84.19-9.82L88.66-23.2 89.08-23.2 93.89-9.82ZM110.78-29.26L104.71-29.26 114.2-15.22 114.2-15.13 103.75 0 110.11 0 117.17-10.87 117.34-10.87 124.53 0 130.67 0 120.56-14.84 120.56-14.92 129.75-29.26 123.78-29.26 117.63-19.23 117.46-19.23ZM146.35-11.7L156.59-29.26 150.2-29.26 143.76-17.56 137.19-29.26 130.72-29.26 140.71-11.7 140.71 0 146.35 0ZM178.95-24.37L178.95-29.26 158.47-29.26 158.47-23.79 172.14-23.79 157.64-4.89 157.64 0 179.16 0 179.16-5.52 164.53-5.52Z" transform="translate(-2.549999952316284, 29.260000228881836)"></path></g> <!----> <!----> <!----> <!----> <!----> <!----> <!----></g></g> <!----></g></g><defs v-gra="od"></defs></svg>